<?xml version="1.0" encoding="utf-8"?>
<!-- Generator: Adobe Illustrator 25.2.3, SVG Export Plug-In . SVG Version: 6.00 Build 0)  -->
<svg version="1.1" xmlns="http://www.w3.org/2000/svg" xmlns:xlink="http://www.w3.org/1999/xlink" x="0px" y="0px"
	 viewBox="0 0 2000 1000" style="enable-background:new 0 0 2000 1000;" xml:space="preserve">
<style type="text/css">
	.st0{fill:#D000F7;}
	.st1{fill:#FF00F7;}
	.st2{fill:#FF58F7;}
	.st3{fill:#FFACF7;}
	.st4{fill:#B100F7;}
	.st5{fill:#FFFFFF;}
	.st6{fill:url(#SVGID_1_);}
	.st7{fill:url(#SVGID_2_);}
	.st8{fill:url(#SVGID_3_);}
	.st9{fill:url(#SVGID_4_);}
	.st10{fill:url(#SVGID_5_);}
	.st11{fill:url(#SVGID_6_);}
	.st12{fill:url(#SVGID_7_);}
	.st13{fill:url(#SVGID_8_);}
	.st14{fill:url(#SVGID_9_);}
	.st15{fill:url(#SVGID_10_);}
	.st16{fill:url(#SVGID_11_);}
	.st17{fill:url(#SVGID_12_);}
	.st18{fill:url(#SVGID_13_);}
	.st19{fill:url(#SVGID_14_);}
	.st20{fill:url(#SVGID_15_);}
	.st21{fill:url(#SVGID_16_);}
	.st22{fill:url(#SVGID_17_);}
	.st23{fill:url(#SVGID_18_);}
	.st24{fill:url(#SVGID_19_);}
	.st25{fill:url(#SVGID_20_);}
	.st26{fill:url(#SVGID_21_);}
	.st27{fill:url(#SVGID_22_);}
	.st28{fill:url(#SVGID_23_);}
	.st29{fill:url(#SVGID_24_);}
	.st30{fill:url(#SVGID_25_);}
	.st31{fill:url(#SVGID_26_);}
	.st32{fill:url(#SVGID_27_);}
	.st33{fill:url(#SVGID_28_);}
	.st34{fill:url(#SVGID_29_);}
	.st35{fill:url(#SVGID_30_);}
	.st36{fill:url(#SVGID_31_);}
	.st37{fill:url(#SVGID_32_);}
	.st38{fill:url(#SVGID_33_);}
	.st39{fill:url(#SVGID_34_);}
	.st40{fill:url(#SVGID_35_);}
	.st41{fill:url(#SVGID_36_);}
	.st42{fill:url(#SVGID_37_);}
	.st43{fill:url(#SVGID_38_);}
	.st44{fill:url(#SVGID_39_);}
	.st45{fill:url(#SVGID_40_);}
	.st46{fill:url(#SVGID_41_);}
	.st47{fill:url(#SVGID_42_);}
	.st48{fill:url(#SVGID_43_);}
	.st49{fill:url(#SVGID_44_);}
	.st50{fill:url(#SVGID_45_);}
	.st51{fill:url(#SVGID_46_);}
	.st52{fill:url(#SVGID_47_);}
	.st53{fill:url(#SVGID_48_);}
	.st54{fill:url(#SVGID_49_);}
	.st55{fill:url(#SVGID_50_);}
	.st56{fill:url(#SVGID_51_);}
	.st57{fill:url(#SVGID_52_);}
	.st58{fill:url(#SVGID_53_);}
	.st59{fill:url(#SVGID_54_);}
	.st60{fill:url(#SVGID_55_);}
	.st61{fill:url(#SVGID_56_);}
	.st62{fill:url(#SVGID_57_);}
	.st63{fill:url(#SVGID_58_);}
	.st64{fill:url(#SVGID_59_);}
	.st65{fill:url(#SVGID_60_);}
	.st66{fill:url(#SVGID_61_);}
	.st67{fill:url(#SVGID_62_);}
	.st68{fill:url(#SVGID_63_);}
	.st69{fill:url(#SVGID_64_);}
	.st70{fill:url(#SVGID_65_);}
	.st71{fill:url(#SVGID_66_);}
	.st72{fill:url(#SVGID_67_);}
	.st73{fill:url(#SVGID_68_);}
	.st74{fill:url(#SVGID_69_);}
	.st75{fill:url(#SVGID_70_);}
	.st76{opacity:0;fill:url(#SVGID_71_);stroke:url(#SVGID_72_);stroke-miterlimit:10;}
</style>
<g id="Capa_1">
	<g>
		<g id="XMLID_1_">
			<g>
				<polygon class="st0" points="1946.55,930.73 1946.54,930.73 1946.54,930.72 1844.23,719.07 1999.02,530 1999.03,529.99 
					2000,1000 				"/>
				<polygon class="st0" points="1946.55,930.73 2000,1000 1236.06,999.13 1946.54,930.73 				"/>
				<polygon class="st1" points="1999.03,0 1999.03,529.95 1999.03,529.98 1830.78,85.82 				"/>
				<polygon class="st0" points="1999.03,529.99 1999.02,530 1844.23,719.07 1790.51,331.7 				"/>
				<polygon class="st0" points="1999.03,529.98 1999.03,529.99 1790.51,331.7 1790.62,239.36 				"/>
				<polygon class="st2" points="1999.03,0 1830.78,85.82 1190.87,0 				"/>
				<polygon class="st1" points="1999.03,529.98 1790.62,239.36 1830.78,85.82 				"/>
				<polygon class="st0" points="1946.54,930.72 1946.54,930.73 1236.06,999.13 1692.57,901.75 				"/>
				<polygon class="st0" points="1844.23,719.07 1946.54,930.72 1692.57,901.75 				"/>
				<polygon class="st0" points="1790.51,331.7 1844.23,719.07 1634.14,719.07 				"/>
				<polygon class="st1" points="1844.23,719.07 1692.57,901.75 1443.27,836.91 				"/>
				<polygon class="st2" points="1844.23,719.07 1443.27,836.91 1634.14,719.07 				"/>
				<polygon class="st3" points="1830.78,85.82 1790.62,239.36 1625.17,503.27 				"/>
				<polygon class="st4" points="1830.78,85.82 1625.17,503.27 1459.72,255.45 1190.87,0 				"/>
				<polygon class="st0" points="1790.62,239.36 1790.51,331.7 1625.17,503.27 				"/>
				<polygon class="st0" points="1790.51,331.7 1634.14,719.07 1625.17,503.27 				"/>
				<polygon class="st1" points="1692.57,901.75 1236.06,999.13 1443.27,836.91 				"/>
				<polygon class="st1" points="1625.17,503.27 1634.14,719.07 1634.01,718.99 1634.04,718.93 1516.17,556.71 				"/>
				<polygon class="st1" points="1634.14,719.07 1443.27,836.91 1210.02,457.26 1457.24,637.82 				"/>
				<polygon class="st1" points="1634.14,719.07 1457.24,637.82 1471.26,618.52 1634.01,718.99 				"/>
				<polygon class="st1" points="1516.17,556.71 1634.04,718.93 1634.01,718.99 1471.26,618.52 				"/>
				<polygon class="st2" points="1459.72,255.45 1625.17,503.27 1473.15,327.1 				"/>
				<polygon class="st0" points="1473.15,327.1 1625.17,503.27 1516.17,556.71 				"/>
				<polygon class="st1" points="1473.15,327.1 1516.17,556.71 1210.02,457.26 1431.2,278.5 				"/>
				<polygon class="st1" points="1516.17,556.71 1471.26,618.52 1210.02,457.26 				"/>
				<polygon class="st2" points="1473.15,327.1 1431.2,278.5 1459.72,255.45 				"/>
				<polygon class="st1" points="1471.26,618.52 1457.24,637.82 1210.02,457.26 				"/>
				<polygon class="st2" points="1459.72,255.45 1431.2,278.5 1405.74,248.99 				"/>
				<polygon class="st2" points="1459.72,255.45 1405.74,248.99 1190.87,0 				"/>
				<polygon class="st3" points="1210.02,457.26 1443.27,836.91 1236.06,999.13 				"/>
				<polygon class="st1" points="1405.74,248.99 1431.2,278.5 1210.02,457.26 1190.87,223.28 				"/>
				<polygon class="st3" points="1405.74,248.99 1190.87,223.28 1190.87,0 				"/>
				<polygon class="st1" points="1210.02,457.26 1236.06,999.13 1081.79,631.23 				"/>
				<polygon class="st1" points="1081.79,631.23 1236.06,999.13 925.25,999.13 925.23,999.04 				"/>
				<polygon class="st2" points="1190.87,223.28 1210.02,457.26 958.79,356.91 				"/>
				<polygon class="st1" points="1210.02,457.26 1081.79,631.23 958.79,356.91 				"/>
				<polygon class="st2" points="1190.87,0 1190.87,223.28 373.67,0 				"/>
				<polygon class="st1" points="1190.87,223.28 958.79,356.91 373.67,0 				"/>
				<polygon class="st1" points="958.79,356.91 1081.79,631.23 759.24,375.31 				"/>
				<polygon class="st3" points="1081.79,631.23 925.23,999.04 759.24,375.31 				"/>
				<polygon class="st3" points="958.79,356.91 759.24,375.31 758.62,373.46 692.18,282.02 				"/>
				<polygon class="st0" points="958.79,356.91 692.18,282.02 373.67,0 				"/>
				<polygon class="st0" points="925.25,999.13 925.29,999.27 447.13,1000 807.32,836.91 925.19,999.13 				"/>
				<polygon class="st5" points="925.23,999.04 925.25,999.13 925.19,999.13 				"/>
				<polygon class="st5" points="759.24,375.31 925.23,999.04 925.19,999.13 				"/>
				<polygon class="st1" points="759.24,375.31 925.19,999.13 807.32,836.91 				"/>
				<polygon class="st4" points="759.24,375.31 807.32,836.91 470.11,671.72 				"/>
				<polygon class="st3" points="807.32,836.91 447.13,1000 587.07,824.91 				"/>
				<polygon class="st2" points="807.32,836.91 587.07,824.91 470.11,671.72 				"/>
				<polygon class="st1" points="758.62,373.46 759.24,375.31 470.11,671.72 692.18,282.02 				"/>
				<polygon class="st1" points="692.18,282.02 470.11,671.72 501.3,220.05 501.48,220.06 				"/>
				<polygon class="st0" points="692.18,282.02 501.48,220.06 501.3,220.05 501.3,220 501.24,219.89 501.3,219.01 373.67,0 				"/>
				<polygon class="st0" points="470.11,671.72 587.07,824.91 251.31,803.51 				"/>
				<polygon class="st0" points="587.07,824.91 447.13,1000 251.31,803.51 				"/>
				<polygon class="st5" points="500.82,219.17 373.67,0 501.3,219.01 501.24,219.89 				"/>
				<polygon class="st2" points="501.24,219.89 470.11,671.72 310.43,281.03 500.82,219.17 				"/>
				<polygon class="st3" points="373.67,0 500.82,219.17 310.43,281.03 				"/>
				<polygon class="st4" points="310.43,281.03 470.11,671.72 216.86,588.64 0,521.6 				"/>
				<polygon class="st0" points="470.11,671.72 251.31,803.51 101.98,765.75 				"/>
				<polygon class="st3" points="470.11,671.72 101.98,765.75 104.96,635.48 				"/>
				<polygon class="st1" points="470.11,671.72 104.96,635.48 213.87,589.89 				"/>
				<polygon class="st0" points="470.11,671.72 213.87,589.89 216.86,588.64 				"/>
				<polygon class="st1" points="251.31,803.51 447.13,1000 0,1000 				"/>
				<polygon class="st0" points="373.67,0 310.43,281.03 0,0 				"/>
				<polygon class="st1" points="310.43,281.03 0,521.6 0,0 				"/>
				<polygon class="st0" points="251.31,803.51 0,1000 101.98,765.75 				"/>
				<polygon class="st5" points="216.86,588.64 213.87,589.89 0,521.6 				"/>
				<polygon class="st3" points="213.87,589.89 104.96,635.48 0,521.6 				"/>
				<polygon class="st2" points="0,521.6 104.96,635.48 0,1000 				"/>
				<polygon class="st2" points="104.96,635.48 101.98,765.75 0,1000 				"/>
			</g>
			<g>
			</g>
		</g>
	</g>
	<g>
		<g id="XMLID_2_">
			<g>
				<polygon class="st0" points="1999.02,530 1999.03,529.99 2000,1000 1946.55,930.73 1946.54,930.73 1946.54,930.72 
					1844.23,719.07 				"/>
				<polygon class="st0" points="1946.55,930.73 2000,1000 1236.06,999.13 1946.54,930.73 				"/>
				<polygon class="st1" points="1999.03,0 1999.03,529.95 1999.03,529.98 1830.78,85.82 				"/>
				<polygon class="st0" points="1999.03,529.99 1999.02,530 1844.23,719.07 1790.51,331.7 				"/>
				<polygon class="st0" points="1999.03,529.98 1999.03,529.99 1790.51,331.7 1790.62,239.36 				"/>
				<polygon class="st2" points="1999.03,0 1830.78,85.82 1190.87,0 				"/>
				<polygon class="st1" points="1999.03,529.98 1790.62,239.36 1830.78,85.82 				"/>
				<polygon class="st0" points="1946.54,930.72 1946.54,930.73 1236.06,999.13 1692.57,901.75 				"/>
				<polygon class="st0" points="1844.23,719.07 1946.54,930.72 1692.57,901.75 				"/>
				<polygon class="st0" points="1790.51,331.7 1844.23,719.07 1634.14,719.07 				"/>
				<polygon class="st1" points="1844.23,719.07 1692.57,901.75 1443.27,836.91 				"/>
				<polygon class="st2" points="1844.23,719.07 1443.27,836.91 1634.14,719.07 				"/>
				<polygon class="st3" points="1830.78,85.82 1790.62,239.36 1625.17,503.27 				"/>
				<polygon class="st4" points="1830.78,85.82 1625.17,503.27 1459.72,255.45 1190.87,0 				"/>
				<polygon class="st0" points="1790.62,239.36 1790.51,331.7 1625.17,503.27 				"/>
				<polygon class="st0" points="1790.51,331.7 1634.14,719.07 1625.17,503.27 				"/>
				<polygon class="st1" points="1692.57,901.75 1236.06,999.13 1443.27,836.91 				"/>
				<polygon class="st1" points="1625.17,503.27 1634.14,719.07 1634.01,718.99 1634.04,718.93 1516.17,556.71 				"/>
				<polygon class="st1" points="1634.14,719.07 1443.27,836.91 1210.02,457.26 1457.24,637.82 				"/>
				<polygon class="st1" points="1634.14,719.07 1457.24,637.82 1471.26,618.52 1634.01,718.99 				"/>
				<polygon class="st1" points="1516.17,556.71 1634.04,718.93 1634.01,718.99 1471.26,618.52 				"/>
				<polygon class="st2" points="1459.72,255.45 1625.17,503.27 1473.15,327.1 				"/>
				<polygon class="st0" points="1473.15,327.1 1625.17,503.27 1516.17,556.71 				"/>
				<polygon class="st1" points="1473.15,327.1 1516.17,556.71 1210.02,457.26 1431.2,278.5 				"/>
				<polygon class="st1" points="1516.17,556.71 1471.26,618.52 1210.02,457.26 				"/>
				<polygon class="st2" points="1473.15,327.1 1431.2,278.5 1459.72,255.45 				"/>
				<polygon class="st1" points="1471.26,618.52 1457.24,637.82 1210.02,457.26 				"/>
				<polygon class="st2" points="1459.72,255.45 1431.2,278.5 1405.74,248.99 				"/>
				<polygon class="st2" points="1459.72,255.45 1405.74,248.99 1190.87,0 				"/>
				<polygon class="st3" points="1210.02,457.26 1443.27,836.91 1236.06,999.13 				"/>
				<polygon class="st1" points="1405.74,248.99 1431.2,278.5 1210.02,457.26 1190.87,223.28 				"/>
				<polygon class="st3" points="1405.74,248.99 1190.87,223.28 1190.87,0 				"/>
				<polygon class="st1" points="1210.02,457.26 1236.06,999.13 1081.79,631.23 				"/>
				<polygon class="st1" points="1081.79,631.23 1236.06,999.13 925.25,999.13 925.23,999.04 				"/>
				<polygon class="st2" points="1190.87,223.28 1210.02,457.26 958.79,356.91 				"/>
				<polygon class="st1" points="1210.02,457.26 1081.79,631.23 958.79,356.91 				"/>
				<polygon class="st2" points="1190.87,0 1190.87,223.28 373.67,0 				"/>
				<polygon class="st1" points="1190.87,223.28 958.79,356.91 373.67,0 				"/>
				<polygon class="st1" points="958.79,356.91 1081.79,631.23 759.24,375.31 				"/>
				<polygon class="st3" points="1081.79,631.23 925.23,999.04 759.24,375.31 				"/>
				<polygon class="st3" points="958.79,356.91 759.24,375.31 758.62,373.46 692.18,282.02 				"/>
				<polygon class="st0" points="958.79,356.91 692.18,282.02 373.67,0 				"/>
				<polygon class="st0" points="925.25,999.13 925.29,999.27 447.13,1000 807.32,836.91 925.19,999.13 				"/>
				<polygon class="st5" points="925.23,999.04 925.25,999.13 925.19,999.13 				"/>
				<polygon class="st5" points="759.24,375.31 925.23,999.04 925.19,999.13 				"/>
				<polygon class="st1" points="759.24,375.31 925.19,999.13 807.32,836.91 				"/>
				<polygon class="st4" points="759.24,375.31 807.32,836.91 470.11,671.72 				"/>
				<polygon class="st3" points="807.32,836.91 447.13,1000 587.07,824.91 				"/>
				<polygon class="st2" points="807.32,836.91 587.07,824.91 470.11,671.72 				"/>
				<polygon class="st1" points="758.62,373.46 759.24,375.31 470.11,671.72 692.18,282.02 				"/>
				<polygon class="st1" points="692.18,282.02 470.11,671.72 501.3,220.05 501.48,220.06 				"/>
				<polygon class="st0" points="692.18,282.02 501.48,220.06 501.3,220.05 501.3,220 501.24,219.89 501.3,219.01 373.67,0 				"/>
				<polygon class="st0" points="470.11,671.72 587.07,824.91 251.31,803.51 				"/>
				<polygon class="st0" points="587.07,824.91 447.13,1000 251.31,803.51 				"/>
				<polygon class="st5" points="500.82,219.17 373.67,0 501.3,219.01 501.24,219.89 				"/>
				<polygon class="st2" points="501.24,219.89 470.11,671.72 310.43,281.03 500.82,219.17 				"/>
				<polygon class="st3" points="373.67,0 500.82,219.17 310.43,281.03 				"/>
				<polygon class="st4" points="310.43,281.03 470.11,671.72 216.86,588.64 0,521.6 				"/>
				<polygon class="st0" points="470.11,671.72 251.31,803.51 101.98,765.75 				"/>
				<polygon class="st3" points="470.11,671.72 101.98,765.75 104.96,635.48 				"/>
				<polygon class="st1" points="470.11,671.72 104.96,635.48 213.87,589.89 				"/>
				<polygon class="st0" points="470.11,671.72 213.87,589.89 216.86,588.64 				"/>
				<polygon class="st1" points="251.31,803.51 447.13,1000 0,1000 				"/>
				<polygon class="st0" points="373.67,0 310.43,281.03 0,0 				"/>
				<polygon class="st1" points="310.43,281.03 0,521.6 0,0 				"/>
				<polygon class="st0" points="251.31,803.51 0,1000 101.98,765.75 				"/>
				<polygon class="st5" points="216.86,588.64 213.87,589.89 0,521.6 				"/>
				<polygon class="st3" points="213.87,589.89 104.96,635.48 0,521.6 				"/>
				<polygon class="st2" points="0,521.6 104.96,635.48 0,1000 				"/>
				<polygon class="st2" points="104.96,635.48 101.98,765.75 0,1000 				"/>
			</g>
			<g>
			</g>
		</g>
	</g>
</g>
<g id="Capa_2">
	<g>
		<g id="XMLID_3_">
			<g>
				<linearGradient id="SVGID_1_" gradientUnits="userSpaceOnUse" x1="1844.23" y1="764.995" x2="2000" y2="764.995">
					<stop  offset="0" style="stop-color:#FFFFFF;stop-opacity:0"/>
					<stop  offset="1" style="stop-color:#000000"/>
				</linearGradient>
				<polygon class="st6" points="1946.55,930.73 1946.54,930.73 1946.54,930.72 1844.23,719.07 1999.02,530 1999.03,529.99 
					2000,1000 				"/>
				<linearGradient id="SVGID_2_" gradientUnits="userSpaceOnUse" x1="1236.0601" y1="965.365" x2="2000" y2="965.365">
					<stop  offset="0" style="stop-color:#FFFFFF;stop-opacity:0"/>
					<stop  offset="1" style="stop-color:#000000"/>
				</linearGradient>
				<polygon class="st7" points="1946.55,930.73 2000,1000 1236.06,999.13 1946.54,930.73 				"/>
				<linearGradient id="SVGID_3_" gradientUnits="userSpaceOnUse" x1="1830.78" y1="264.99" x2="1999.03" y2="264.99">
					<stop  offset="0" style="stop-color:#FFFFFF;stop-opacity:0"/>
					<stop  offset="1" style="stop-color:#000000"/>
				</linearGradient>
				<polygon class="st8" points="1999.03,0 1999.03,529.95 1999.03,529.98 1830.78,85.82 				"/>
				<linearGradient id="SVGID_4_" gradientUnits="userSpaceOnUse" x1="1790.51" y1="525.385" x2="1999.03" y2="525.385">
					<stop  offset="0" style="stop-color:#FFFFFF;stop-opacity:0"/>
					<stop  offset="1" style="stop-color:#000000"/>
				</linearGradient>
				<polygon class="st9" points="1999.03,529.99 1999.02,530 1844.23,719.07 1790.51,331.7 				"/>
				<linearGradient id="SVGID_5_" gradientUnits="userSpaceOnUse" x1="1790.51" y1="384.675" x2="1999.03" y2="384.675">
					<stop  offset="0" style="stop-color:#FFFFFF;stop-opacity:0"/>
					<stop  offset="1" style="stop-color:#000000"/>
				</linearGradient>
				<polygon class="st10" points="1999.03,529.98 1999.03,529.99 1790.51,331.7 1790.62,239.36 				"/>
				<linearGradient id="SVGID_6_" gradientUnits="userSpaceOnUse" x1="1190.87" y1="42.91" x2="1999.03" y2="42.91">
					<stop  offset="0" style="stop-color:#FFFFFF;stop-opacity:0"/>
					<stop  offset="1" style="stop-color:#000000"/>
				</linearGradient>
				<polygon class="st11" points="1999.03,0 1830.78,85.82 1190.87,0 				"/>
				<linearGradient id="SVGID_7_" gradientUnits="userSpaceOnUse" x1="1790.62" y1="307.9" x2="1999.03" y2="307.9">
					<stop  offset="0" style="stop-color:#FFFFFF;stop-opacity:0"/>
					<stop  offset="1" style="stop-color:#000000"/>
				</linearGradient>
				<polygon class="st12" points="1999.03,529.98 1790.62,239.36 1830.78,85.82 				"/>
				<linearGradient id="SVGID_8_" gradientUnits="userSpaceOnUse" x1="1236.0601" y1="950.44" x2="1946.54" y2="950.44">
					<stop  offset="0" style="stop-color:#FFFFFF;stop-opacity:0"/>
					<stop  offset="1" style="stop-color:#000000"/>
				</linearGradient>
				<polygon class="st13" points="1946.54,930.72 1946.54,930.73 1236.06,999.13 1692.57,901.75 				"/>
				<linearGradient id="SVGID_9_" gradientUnits="userSpaceOnUse" x1="1692.5699" y1="824.895" x2="1946.54" y2="824.895">
					<stop  offset="0" style="stop-color:#FFFFFF;stop-opacity:0"/>
					<stop  offset="1" style="stop-color:#000000"/>
				</linearGradient>
				<polygon class="st14" points="1844.23,719.07 1946.54,930.72 1692.57,901.75 				"/>
				<linearGradient id="SVGID_10_" gradientUnits="userSpaceOnUse" x1="1634.14" y1="525.385" x2="1844.23" y2="525.385">
					<stop  offset="0" style="stop-color:#FFFFFF;stop-opacity:0"/>
					<stop  offset="1" style="stop-color:#000000"/>
				</linearGradient>
				<polygon class="st15" points="1790.51,331.7 1844.23,719.07 1634.14,719.07 				"/>
				<linearGradient id="SVGID_11_" gradientUnits="userSpaceOnUse" x1="1443.27" y1="810.41" x2="1844.23" y2="810.41">
					<stop  offset="0" style="stop-color:#FFFFFF;stop-opacity:0"/>
					<stop  offset="1" style="stop-color:#000000"/>
				</linearGradient>
				<polygon class="st16" points="1844.23,719.07 1692.57,901.75 1443.27,836.91 				"/>
				<linearGradient id="SVGID_12_" gradientUnits="userSpaceOnUse" x1="1443.27" y1="777.99" x2="1844.23" y2="777.99">
					<stop  offset="0" style="stop-color:#FFFFFF;stop-opacity:0"/>
					<stop  offset="1" style="stop-color:#000000"/>
				</linearGradient>
				<polygon class="st17" points="1844.23,719.07 1443.27,836.91 1634.14,719.07 				"/>
				<linearGradient id="SVGID_13_" gradientUnits="userSpaceOnUse" x1="1625.17" y1="294.545" x2="1830.78" y2="294.545">
					<stop  offset="0" style="stop-color:#FFFFFF;stop-opacity:0"/>
					<stop  offset="1" style="stop-color:#000000"/>
				</linearGradient>
				<polygon class="st18" points="1830.78,85.82 1790.62,239.36 1625.17,503.27 				"/>
				<linearGradient id="SVGID_14_" gradientUnits="userSpaceOnUse" x1="1190.87" y1="251.635" x2="1830.78" y2="251.635">
					<stop  offset="0" style="stop-color:#FFFFFF;stop-opacity:0"/>
					<stop  offset="1" style="stop-color:#000000"/>
				</linearGradient>
				<polygon class="st19" points="1830.78,85.82 1625.17,503.27 1459.72,255.45 1190.87,0 				"/>
				<linearGradient id="SVGID_15_" gradientUnits="userSpaceOnUse" x1="1625.17" y1="371.315" x2="1790.62" y2="371.315">
					<stop  offset="0" style="stop-color:#FFFFFF;stop-opacity:0"/>
					<stop  offset="1" style="stop-color:#000000"/>
				</linearGradient>
				<polygon class="st20" points="1790.62,239.36 1790.51,331.7 1625.17,503.27 				"/>
				<linearGradient id="SVGID_16_" gradientUnits="userSpaceOnUse" x1="1625.17" y1="525.385" x2="1790.51" y2="525.385">
					<stop  offset="0" style="stop-color:#FFFFFF;stop-opacity:0"/>
					<stop  offset="1" style="stop-color:#000000"/>
				</linearGradient>
				<polygon class="st21" points="1790.51,331.7 1634.14,719.07 1625.17,503.27 				"/>
				<linearGradient id="SVGID_17_" gradientUnits="userSpaceOnUse" x1="1236.0601" y1="918.02" x2="1692.5699" y2="918.02">
					<stop  offset="0" style="stop-color:#FFFFFF;stop-opacity:0"/>
					<stop  offset="1" style="stop-color:#000000"/>
				</linearGradient>
				<polygon class="st22" points="1692.57,901.75 1236.06,999.13 1443.27,836.91 				"/>
				<linearGradient id="SVGID_18_" gradientUnits="userSpaceOnUse" x1="1516.17" y1="611.17" x2="1634.14" y2="611.17">
					<stop  offset="0" style="stop-color:#FFFFFF;stop-opacity:0"/>
					<stop  offset="1" style="stop-color:#000000"/>
				</linearGradient>
				<polygon class="st23" points="1625.17,503.27 1634.14,719.07 1634.01,718.99 1634.04,718.93 1516.17,556.71 				"/>
				<linearGradient id="SVGID_19_" gradientUnits="userSpaceOnUse" x1="1210.02" y1="647.085" x2="1634.14" y2="647.085">
					<stop  offset="0" style="stop-color:#FFFFFF;stop-opacity:0"/>
					<stop  offset="1" style="stop-color:#000000"/>
				</linearGradient>
				<polygon class="st24" points="1634.14,719.07 1443.27,836.91 1210.02,457.26 1457.24,637.82 				"/>
				<linearGradient id="SVGID_20_" gradientUnits="userSpaceOnUse" x1="1457.24" y1="668.795" x2="1634.14" y2="668.795">
					<stop  offset="0" style="stop-color:#FFFFFF;stop-opacity:0"/>
					<stop  offset="1" style="stop-color:#000000"/>
				</linearGradient>
				<polygon class="st25" points="1634.14,719.07 1457.24,637.82 1471.26,618.52 1634.01,718.99 				"/>
				<linearGradient id="SVGID_21_" gradientUnits="userSpaceOnUse" x1="1471.26" y1="637.85" x2="1634.04" y2="637.85">
					<stop  offset="0" style="stop-color:#FFFFFF;stop-opacity:0"/>
					<stop  offset="1" style="stop-color:#000000"/>
				</linearGradient>
				<polygon class="st26" points="1516.17,556.71 1634.04,718.93 1634.01,718.99 1471.26,618.52 				"/>
				<linearGradient id="SVGID_22_" gradientUnits="userSpaceOnUse" x1="1459.72" y1="379.36" x2="1625.17" y2="379.36">
					<stop  offset="0" style="stop-color:#FFFFFF;stop-opacity:0"/>
					<stop  offset="1" style="stop-color:#000000"/>
				</linearGradient>
				<polygon class="st27" points="1459.72,255.45 1625.17,503.27 1473.15,327.1 				"/>
				<linearGradient id="SVGID_23_" gradientUnits="userSpaceOnUse" x1="1473.15" y1="441.905" x2="1625.17" y2="441.905">
					<stop  offset="0" style="stop-color:#FFFFFF;stop-opacity:0"/>
					<stop  offset="1" style="stop-color:#000000"/>
				</linearGradient>
				<polygon class="st28" points="1473.15,327.1 1625.17,503.27 1516.17,556.71 				"/>
				<linearGradient id="SVGID_24_" gradientUnits="userSpaceOnUse" x1="1210.02" y1="417.605" x2="1516.17" y2="417.605">
					<stop  offset="0" style="stop-color:#FFFFFF;stop-opacity:0"/>
					<stop  offset="1" style="stop-color:#000000"/>
				</linearGradient>
				<polygon class="st29" points="1473.15,327.1 1516.17,556.71 1210.02,457.26 1431.2,278.5 				"/>
				<linearGradient id="SVGID_25_" gradientUnits="userSpaceOnUse" x1="1210.02" y1="537.89" x2="1516.17" y2="537.89">
					<stop  offset="0" style="stop-color:#FFFFFF;stop-opacity:0"/>
					<stop  offset="1" style="stop-color:#000000"/>
				</linearGradient>
				<polygon class="st30" points="1516.17,556.71 1471.26,618.52 1210.02,457.26 				"/>
				<linearGradient id="SVGID_26_" gradientUnits="userSpaceOnUse" x1="1431.2" y1="291.275" x2="1473.15" y2="291.275">
					<stop  offset="0" style="stop-color:#FFFFFF;stop-opacity:0"/>
					<stop  offset="1" style="stop-color:#000000"/>
				</linearGradient>
				<polygon class="st31" points="1473.15,327.1 1431.2,278.5 1459.72,255.45 				"/>
				<linearGradient id="SVGID_27_" gradientUnits="userSpaceOnUse" x1="1210.02" y1="547.54" x2="1471.26" y2="547.54">
					<stop  offset="0" style="stop-color:#FFFFFF;stop-opacity:0"/>
					<stop  offset="1" style="stop-color:#000000"/>
				</linearGradient>
				<polygon class="st32" points="1471.26,618.52 1457.24,637.82 1210.02,457.26 				"/>
				<linearGradient id="SVGID_28_" gradientUnits="userSpaceOnUse" x1="1405.74" y1="263.745" x2="1459.72" y2="263.745">
					<stop  offset="0" style="stop-color:#FFFFFF;stop-opacity:0"/>
					<stop  offset="1" style="stop-color:#000000"/>
				</linearGradient>
				<polygon class="st33" points="1459.72,255.45 1431.2,278.5 1405.74,248.99 				"/>
				<linearGradient id="SVGID_29_" gradientUnits="userSpaceOnUse" x1="1190.87" y1="127.725" x2="1459.72" y2="127.725">
					<stop  offset="0" style="stop-color:#FFFFFF;stop-opacity:0"/>
					<stop  offset="1" style="stop-color:#000000"/>
				</linearGradient>
				<polygon class="st34" points="1459.72,255.45 1405.74,248.99 1190.87,0 				"/>
				<linearGradient id="SVGID_30_" gradientUnits="userSpaceOnUse" x1="1210.02" y1="728.195" x2="1443.27" y2="728.195">
					<stop  offset="0" style="stop-color:#FFFFFF;stop-opacity:0"/>
					<stop  offset="1" style="stop-color:#000000"/>
				</linearGradient>
				<polygon class="st35" points="1210.02,457.26 1443.27,836.91 1236.06,999.13 				"/>
				<linearGradient id="SVGID_31_" gradientUnits="userSpaceOnUse" x1="1190.87" y1="340.27" x2="1431.2" y2="340.27">
					<stop  offset="0" style="stop-color:#FFFFFF;stop-opacity:0"/>
					<stop  offset="1" style="stop-color:#000000"/>
				</linearGradient>
				<polygon class="st36" points="1405.74,248.99 1431.2,278.5 1210.02,457.26 1190.87,223.28 				"/>
				<linearGradient id="SVGID_32_" gradientUnits="userSpaceOnUse" x1="1190.87" y1="124.495" x2="1405.74" y2="124.495">
					<stop  offset="0" style="stop-color:#FFFFFF;stop-opacity:0"/>
					<stop  offset="1" style="stop-color:#000000"/>
				</linearGradient>
				<polygon class="st37" points="1405.74,248.99 1190.87,223.28 1190.87,0 				"/>
				<linearGradient id="SVGID_33_" gradientUnits="userSpaceOnUse" x1="1081.79" y1="728.195" x2="1236.0601" y2="728.195">
					<stop  offset="0" style="stop-color:#FFFFFF;stop-opacity:0"/>
					<stop  offset="1" style="stop-color:#000000"/>
				</linearGradient>
				<polygon class="st38" points="1210.02,457.26 1236.06,999.13 1081.79,631.23 				"/>
				<linearGradient id="SVGID_34_" gradientUnits="userSpaceOnUse" x1="925.23" y1="815.18" x2="1236.0601" y2="815.18">
					<stop  offset="0" style="stop-color:#FFFFFF;stop-opacity:0"/>
					<stop  offset="1" style="stop-color:#000000"/>
				</linearGradient>
				<polygon class="st39" points="1081.79,631.23 1236.06,999.13 925.25,999.13 925.23,999.04 				"/>
				<linearGradient id="SVGID_35_" gradientUnits="userSpaceOnUse" x1="958.79" y1="340.27" x2="1210.02" y2="340.27">
					<stop  offset="0" style="stop-color:#FFFFFF;stop-opacity:0"/>
					<stop  offset="1" style="stop-color:#000000"/>
				</linearGradient>
				<polygon class="st40" points="1190.87,223.28 1210.02,457.26 958.79,356.91 				"/>
				<linearGradient id="SVGID_36_" gradientUnits="userSpaceOnUse" x1="958.79" y1="494.07" x2="1210.02" y2="494.07">
					<stop  offset="0" style="stop-color:#FFFFFF;stop-opacity:0"/>
					<stop  offset="1" style="stop-color:#000000"/>
				</linearGradient>
				<polygon class="st41" points="1210.02,457.26 1081.79,631.23 958.79,356.91 				"/>
				<linearGradient id="SVGID_37_" gradientUnits="userSpaceOnUse" x1="373.67" y1="111.64" x2="1190.87" y2="111.64">
					<stop  offset="0" style="stop-color:#FFFFFF;stop-opacity:0"/>
					<stop  offset="1" style="stop-color:#000000"/>
				</linearGradient>
				<polygon class="st42" points="1190.87,0 1190.87,223.28 373.67,0 				"/>
				<linearGradient id="SVGID_38_" gradientUnits="userSpaceOnUse" x1="373.67" y1="178.455" x2="1190.87" y2="178.455">
					<stop  offset="0" style="stop-color:#FFFFFF;stop-opacity:0"/>
					<stop  offset="1" style="stop-color:#000000"/>
				</linearGradient>
				<polygon class="st43" points="1190.87,223.28 958.79,356.91 373.67,0 				"/>
				<linearGradient id="SVGID_39_" gradientUnits="userSpaceOnUse" x1="759.24" y1="494.07" x2="1081.79" y2="494.07">
					<stop  offset="0" style="stop-color:#FFFFFF;stop-opacity:0"/>
					<stop  offset="1" style="stop-color:#000000"/>
				</linearGradient>
				<polygon class="st44" points="958.79,356.91 1081.79,631.23 759.24,375.31 				"/>
				<linearGradient id="SVGID_40_" gradientUnits="userSpaceOnUse" x1="759.24" y1="687.175" x2="1081.79" y2="687.175">
					<stop  offset="0" style="stop-color:#FFFFFF;stop-opacity:0"/>
					<stop  offset="1" style="stop-color:#000000"/>
				</linearGradient>
				<polygon class="st45" points="1081.79,631.23 925.23,999.04 759.24,375.31 				"/>
				<linearGradient id="SVGID_41_" gradientUnits="userSpaceOnUse" x1="692.18" y1="328.665" x2="958.79" y2="328.665">
					<stop  offset="0" style="stop-color:#FFFFFF;stop-opacity:0"/>
					<stop  offset="1" style="stop-color:#000000"/>
				</linearGradient>
				<polygon class="st46" points="958.79,356.91 759.24,375.31 758.62,373.46 692.18,282.02 				"/>
				<linearGradient id="SVGID_42_" gradientUnits="userSpaceOnUse" x1="373.67" y1="178.455" x2="958.79" y2="178.455">
					<stop  offset="0" style="stop-color:#FFFFFF;stop-opacity:0"/>
					<stop  offset="1" style="stop-color:#000000"/>
				</linearGradient>
				<polygon class="st47" points="958.79,356.91 692.18,282.02 373.67,0 				"/>
				<linearGradient id="SVGID_43_" gradientUnits="userSpaceOnUse" x1="447.13" y1="918.455" x2="925.29" y2="918.455">
					<stop  offset="0" style="stop-color:#FFFFFF;stop-opacity:0"/>
					<stop  offset="1" style="stop-color:#000000"/>
				</linearGradient>
				<polygon class="st48" points="925.25,999.13 925.29,999.27 447.13,1000 807.32,836.91 925.19,999.13 				"/>
				<linearGradient id="SVGID_44_" gradientUnits="userSpaceOnUse" x1="925.19" y1="999.085" x2="925.25" y2="999.085">
					<stop  offset="0" style="stop-color:#FFFFFF;stop-opacity:0"/>
					<stop  offset="1" style="stop-color:#000000"/>
				</linearGradient>
				<polygon class="st49" points="925.23,999.04 925.25,999.13 925.19,999.13 				"/>
				<linearGradient id="SVGID_45_" gradientUnits="userSpaceOnUse" x1="759.24" y1="687.22" x2="925.23" y2="687.22">
					<stop  offset="0" style="stop-color:#FFFFFF;stop-opacity:0"/>
					<stop  offset="1" style="stop-color:#000000"/>
				</linearGradient>
				<polygon class="st50" points="759.24,375.31 925.23,999.04 925.19,999.13 				"/>
				<linearGradient id="SVGID_46_" gradientUnits="userSpaceOnUse" x1="759.24" y1="687.22" x2="925.19" y2="687.22">
					<stop  offset="0" style="stop-color:#FFFFFF;stop-opacity:0"/>
					<stop  offset="1" style="stop-color:#000000"/>
				</linearGradient>
				<polygon class="st51" points="759.24,375.31 925.19,999.13 807.32,836.91 				"/>
				<linearGradient id="SVGID_47_" gradientUnits="userSpaceOnUse" x1="470.11" y1="606.11" x2="807.32" y2="606.11">
					<stop  offset="0" style="stop-color:#FFFFFF;stop-opacity:0"/>
					<stop  offset="1" style="stop-color:#000000"/>
				</linearGradient>
				<polygon class="st52" points="759.24,375.31 807.32,836.91 470.11,671.72 				"/>
				<linearGradient id="SVGID_48_" gradientUnits="userSpaceOnUse" x1="447.13" y1="912.455" x2="807.32" y2="912.455">
					<stop  offset="0" style="stop-color:#FFFFFF;stop-opacity:0"/>
					<stop  offset="1" style="stop-color:#000000"/>
				</linearGradient>
				<polygon class="st53" points="807.32,836.91 447.13,1000 587.07,824.91 				"/>
				<linearGradient id="SVGID_49_" gradientUnits="userSpaceOnUse" x1="470.11" y1="754.315" x2="807.32" y2="754.315">
					<stop  offset="0" style="stop-color:#FFFFFF;stop-opacity:0"/>
					<stop  offset="1" style="stop-color:#000000"/>
				</linearGradient>
				<polygon class="st54" points="807.32,836.91 587.07,824.91 470.11,671.72 				"/>
				<linearGradient id="SVGID_50_" gradientUnits="userSpaceOnUse" x1="470.11" y1="476.87" x2="759.24" y2="476.87">
					<stop  offset="0" style="stop-color:#FFFFFF;stop-opacity:0"/>
					<stop  offset="1" style="stop-color:#000000"/>
				</linearGradient>
				<polygon class="st55" points="758.62,373.46 759.24,375.31 470.11,671.72 692.18,282.02 				"/>
				<linearGradient id="SVGID_51_" gradientUnits="userSpaceOnUse" x1="470.11" y1="445.885" x2="692.18" y2="445.885">
					<stop  offset="0" style="stop-color:#FFFFFF;stop-opacity:0"/>
					<stop  offset="1" style="stop-color:#000000"/>
				</linearGradient>
				<polygon class="st56" points="692.18,282.02 470.11,671.72 501.3,220.05 501.48,220.06 				"/>
				<linearGradient id="SVGID_52_" gradientUnits="userSpaceOnUse" x1="373.67" y1="141.01" x2="692.18" y2="141.01">
					<stop  offset="0" style="stop-color:#FFFFFF;stop-opacity:0"/>
					<stop  offset="1" style="stop-color:#000000"/>
				</linearGradient>
				<polygon class="st57" points="692.18,282.02 501.48,220.06 501.3,220.05 501.3,220 501.24,219.89 501.3,219.01 373.67,0 				"/>
				<linearGradient id="SVGID_53_" gradientUnits="userSpaceOnUse" x1="251.31" y1="748.315" x2="587.07" y2="748.315">
					<stop  offset="0" style="stop-color:#FFFFFF;stop-opacity:0"/>
					<stop  offset="1" style="stop-color:#000000"/>
				</linearGradient>
				<polygon class="st58" points="470.11,671.72 587.07,824.91 251.31,803.51 				"/>
				<linearGradient id="SVGID_54_" gradientUnits="userSpaceOnUse" x1="251.31" y1="901.755" x2="587.07" y2="901.755">
					<stop  offset="0" style="stop-color:#FFFFFF;stop-opacity:0"/>
					<stop  offset="1" style="stop-color:#000000"/>
				</linearGradient>
				<polygon class="st59" points="587.07,824.91 447.13,1000 251.31,803.51 				"/>
				<linearGradient id="SVGID_55_" gradientUnits="userSpaceOnUse" x1="373.67" y1="109.945" x2="501.3" y2="109.945">
					<stop  offset="0" style="stop-color:#FFFFFF;stop-opacity:0"/>
					<stop  offset="1" style="stop-color:#000000"/>
				</linearGradient>
				<polygon class="st60" points="500.82,219.17 373.67,0 501.3,219.01 501.24,219.89 				"/>
				<linearGradient id="SVGID_56_" gradientUnits="userSpaceOnUse" x1="310.43" y1="445.445" x2="501.24" y2="445.445">
					<stop  offset="0" style="stop-color:#FFFFFF;stop-opacity:0"/>
					<stop  offset="1" style="stop-color:#000000"/>
				</linearGradient>
				<polygon class="st61" points="501.24,219.89 470.11,671.72 310.43,281.03 500.82,219.17 				"/>
				<linearGradient id="SVGID_57_" gradientUnits="userSpaceOnUse" x1="310.43" y1="140.515" x2="500.82" y2="140.515">
					<stop  offset="0" style="stop-color:#FFFFFF;stop-opacity:0"/>
					<stop  offset="1" style="stop-color:#000000"/>
				</linearGradient>
				<polygon class="st62" points="373.67,0 500.82,219.17 310.43,281.03 				"/>
				<linearGradient id="SVGID_58_" gradientUnits="userSpaceOnUse" x1="0" y1="476.375" x2="470.11" y2="476.375">
					<stop  offset="0" style="stop-color:#FFFFFF;stop-opacity:0"/>
					<stop  offset="1" style="stop-color:#000000"/>
				</linearGradient>
				<polygon class="st63" points="310.43,281.03 470.11,671.72 216.86,588.64 0,521.6 				"/>
				<linearGradient id="SVGID_59_" gradientUnits="userSpaceOnUse" x1="101.98" y1="737.615" x2="470.11" y2="737.615">
					<stop  offset="0" style="stop-color:#FFFFFF;stop-opacity:0"/>
					<stop  offset="1" style="stop-color:#000000"/>
				</linearGradient>
				<polygon class="st64" points="470.11,671.72 251.31,803.51 101.98,765.75 				"/>
				<linearGradient id="SVGID_60_" gradientUnits="userSpaceOnUse" x1="101.98" y1="700.615" x2="470.11" y2="700.615">
					<stop  offset="0" style="stop-color:#FFFFFF;stop-opacity:0"/>
					<stop  offset="1" style="stop-color:#000000"/>
				</linearGradient>
				<polygon class="st65" points="470.11,671.72 101.98,765.75 104.96,635.48 				"/>
				<linearGradient id="SVGID_61_" gradientUnits="userSpaceOnUse" x1="104.96" y1="630.805" x2="470.11" y2="630.805">
					<stop  offset="0" style="stop-color:#FFFFFF;stop-opacity:0"/>
					<stop  offset="1" style="stop-color:#000000"/>
				</linearGradient>
				<polygon class="st66" points="470.11,671.72 104.96,635.48 213.87,589.89 				"/>
				<linearGradient id="SVGID_62_" gradientUnits="userSpaceOnUse" x1="213.87" y1="630.18" x2="470.11" y2="630.18">
					<stop  offset="0" style="stop-color:#FFFFFF;stop-opacity:0"/>
					<stop  offset="1" style="stop-color:#000000"/>
				</linearGradient>
				<polygon class="st67" points="470.11,671.72 213.87,589.89 216.86,588.64 				"/>
				<linearGradient id="SVGID_63_" gradientUnits="userSpaceOnUse" x1="0" y1="901.755" x2="447.13" y2="901.755">
					<stop  offset="0" style="stop-color:#FFFFFF;stop-opacity:0"/>
					<stop  offset="1" style="stop-color:#000000"/>
				</linearGradient>
				<polygon class="st68" points="251.31,803.51 447.13,1000 0,1000 				"/>
				<linearGradient id="SVGID_64_" gradientUnits="userSpaceOnUse" x1="0" y1="140.515" x2="373.67" y2="140.515">
					<stop  offset="0" style="stop-color:#FFFFFF;stop-opacity:0"/>
					<stop  offset="1" style="stop-color:#000000"/>
				</linearGradient>
				<polygon class="st69" points="373.67,0 310.43,281.03 0,0 				"/>
				<linearGradient id="SVGID_65_" gradientUnits="userSpaceOnUse" x1="0" y1="260.8" x2="310.43" y2="260.8">
					<stop  offset="0" style="stop-color:#FFFFFF;stop-opacity:0"/>
					<stop  offset="1" style="stop-color:#000000"/>
				</linearGradient>
				<polygon class="st70" points="310.43,281.03 0,521.6 0,0 				"/>
				<linearGradient id="SVGID_66_" gradientUnits="userSpaceOnUse" x1="0" y1="882.875" x2="251.31" y2="882.875">
					<stop  offset="0" style="stop-color:#FFFFFF;stop-opacity:0"/>
					<stop  offset="1" style="stop-color:#000000"/>
				</linearGradient>
				<polygon class="st71" points="251.31,803.51 0,1000 101.98,765.75 				"/>
				<linearGradient id="SVGID_67_" gradientUnits="userSpaceOnUse" x1="0" y1="555.745" x2="216.86" y2="555.745">
					<stop  offset="0" style="stop-color:#FFFFFF;stop-opacity:0"/>
					<stop  offset="1" style="stop-color:#000000"/>
				</linearGradient>
				<polygon class="st72" points="216.86,588.64 213.87,589.89 0,521.6 				"/>
				<linearGradient id="SVGID_68_" gradientUnits="userSpaceOnUse" x1="0" y1="578.54" x2="213.87" y2="578.54">
					<stop  offset="0" style="stop-color:#FFFFFF;stop-opacity:0"/>
					<stop  offset="1" style="stop-color:#000000"/>
				</linearGradient>
				<polygon class="st73" points="213.87,589.89 104.96,635.48 0,521.6 				"/>
				<linearGradient id="SVGID_69_" gradientUnits="userSpaceOnUse" x1="0" y1="760.8" x2="104.96" y2="760.8">
					<stop  offset="0" style="stop-color:#FFFFFF;stop-opacity:0"/>
					<stop  offset="1" style="stop-color:#000000"/>
				</linearGradient>
				<polygon class="st74" points="0,521.6 104.96,635.48 0,1000 				"/>
				<linearGradient id="SVGID_70_" gradientUnits="userSpaceOnUse" x1="0" y1="817.74" x2="104.96" y2="817.74">
					<stop  offset="0" style="stop-color:#FFFFFF;stop-opacity:0"/>
					<stop  offset="1" style="stop-color:#000000"/>
				</linearGradient>
				<polygon class="st75" points="104.96,635.48 101.98,765.75 0,1000 				"/>
			</g>
			<g>
			</g>
		</g>
	</g>
</g>
<g id="Capa_3">
	<linearGradient id="SVGID_71_" gradientUnits="userSpaceOnUse" x1="0" y1="499.565" x2="1999.0253" y2="499.565">
		<stop  offset="0" style="stop-color:#FFFFFF;stop-opacity:0"/>
		<stop  offset="1" style="stop-color:#000000"/>
	</linearGradient>
	<radialGradient id="SVGID_72_" cx="999.5126" cy="499.565" r="790.598" gradientUnits="userSpaceOnUse">
		<stop  offset="0" style="stop-color:#FFFFFF"/>
		<stop  offset="1" style="stop-color:#000000"/>
	</radialGradient>
	<rect class="st76" width="1999.03" height="999.13"/>
</g>
</svg>
