<svg id="Capa_1" data-name="Capa 1" xmlns="http://www.w3.org/2000/svg" viewBox="0 0 100 61.3">
    <defs>
        <style>
            .cls-1 {
                fill: #aa5399;
            }

            .cls-2 {
                font-size: 12.68px;
                fill: #b67cb3;
                font-family: AllRoundGothic-Demi, AllRoundGothic Demi;
                font-weight: 300;
            }

            .cls-3 {
                letter-spacing: 0.01em;
            }

            .cls-4 {
                letter-spacing: 0.01em;
            }

            .cls-5 {
                letter-spacing: -0.09em;
            }

            .cls-6 {
                letter-spacing: 0em;
            }

            .cls-7 {
                letter-spacing: -0.01em;
            }

            .cls-8 {
                letter-spacing: -0.01em;
            }
        </style>
    </defs>
    <path class="cls-1"
        d="M73.27,39.42a10.47,10.47,0,0,0-3.33-.54,3.24,3.24,0,0,1-3.32-3.15V29.44a3.33,3.33,0,0,1,6.65,0,3.33,3.33,0,0,0,6.64,0,9.49,9.49,0,0,0-6.64-8.9,10.51,10.51,0,0,0-6.65,0,9.92,9.92,0,0,0-3.33,1.87A9.78,9.78,0,0,0,60,20.54a10.51,10.51,0,0,0-6.65,0A10,10,0,0,0,50,22.41a10,10,0,0,0-3.32-1.87,10.51,10.51,0,0,0-6.65,0,9.49,9.49,0,0,0-6.65,8.9V48.32a3.33,3.33,0,0,1-6.65,0,3.32,3.32,0,0,0-6.64,0,9.49,9.49,0,0,0,6.64,8.89,10.51,10.51,0,0,0,6.65,0A9.49,9.49,0,0,0,40,48.32V29.44a3.33,3.33,0,0,1,6.65,0v6.29a3.07,3.07,0,0,0,1,2.23,3.46,3.46,0,0,0,4.7,0,3.07,3.07,0,0,0,1-2.23V29.44a3.33,3.33,0,0,1,6.65,0V48.32c0,.15,0,.31,0,.47a9.82,9.82,0,0,0,.12,1.09c0,.19.08.39.13.58s.05.18.07.27a8.09,8.09,0,0,0,.28.83,9.38,9.38,0,0,0,2,3.1l.34.33.34.31.29.24a10.37,10.37,0,0,0,1.4.94l.29.15a10,10,0,0,0,1.06.46,2.3,2.3,0,0,0,.34.12,7.36,7.36,0,0,0,.8.24l.4.09.38.07.29,0,.4.05a4.56,4.56,0,0,0,.54,0h1a4.91,4.91,0,0,0,.55,0l.39-.05.29,0,.38-.07.41-.09a8.1,8.1,0,0,0,.8-.24l.33-.12a10,10,0,0,0,1.06-.46l.29-.15a9.78,9.78,0,0,0,1.4-.94l.29-.24L77,55l.33-.33a9.41,9.41,0,0,0,2-3.1c.1-.27.2-.55.28-.83,0-.09,0-.19.06-.27s.09-.39.13-.58a9.82,9.82,0,0,0,.12-1.09c0-.16,0-.32,0-.47A9.49,9.49,0,0,0,73.27,39.42Zm-3.33,12a3.24,3.24,0,0,1-3.32-3.14V42a3.24,3.24,0,0,0,3.32,3.15,3.15,3.15,0,1,1,0,6.29Z"
        transform="translate(0 -20)" /><text class="cls-2" transform="translate(9.82 58.13) scale(1.05 1)">
        <tspan class="cls-3">M</tspan>
        <tspan x="10.27" y="0">onchis'</tspan>
        <tspan class="cls-5" x="44.76" y="0"></tspan>
        <tspan x="46.3" y="0"> </tspan>
        <tspan class="cls-6" x="48.99" y="0">S</tspan>
        <tspan class="cls-7" x="55.2" y="0">t</tspan>
        <tspan x="59.32" y="0">o</tspan>
        <tspan class="cls-8" x="66.28" y="0">r</tspan>
        <tspan x="70.3" y="0">e</tspan>
    </text>
</svg>